<?xml version="1.0" encoding="UTF-8"?>
<svg version="1.1" xmlns="http://www.w3.org/2000/svg" width="48" height="48">
<path d="M0 0 C6.38690941 0.06091621 12.36284285 1.16041984 18.5859375 2.51953125 C19.63910156 2.73287109 20.69226562 2.94621094 21.77734375 3.16601562 C31.17702797 5.16151259 31.17702797 5.16151259 35.2109375 8.20703125 C36.07938593 15.59997689 34.38556059 22.7216874 32.8984375 29.95703125 C32.68509766 31.06691406 32.47175781 32.17679688 32.25195312 33.3203125 C32.03603516 34.39152344 31.82011719 35.46273437 31.59765625 36.56640625 C31.40389404 37.53030273 31.21013184 38.49419922 31.01049805 39.48730469 C30.13008459 42.48205458 29.07377432 44.70124607 27.2109375 47.20703125 C19.76069979 48.31175214 12.16382281 45.97298938 4.8984375 44.39453125 C3.62419922 44.13349609 2.34996094 43.87246094 1.03710938 43.60351562 C-0.18041016 43.34248047 -1.39792969 43.08144531 -2.65234375 42.8125 C-3.75876221 42.57684326 -4.86518066 42.34118652 -6.00512695 42.09838867 C-8.84250247 41.1899209 -10.09925135 40.63278629 -11.7890625 38.20703125 C-12.58095033 30.13811107 -10.61131377 22.55141448 -8.8515625 14.70703125 C-8.57376953 13.42054687 -8.29597656 12.1340625 -8.00976562 10.80859375 C-5.65175399 0.05833349 -5.65175399 0.05833349 0 0 Z " fill="#7067D7" transform="translate(11.7890625,-0.20703124999999997)"/>
<path d="M0 0 C3.66061645 1.83030823 5.55189 3.37842807 7.9375 6.6875 C9.35654771 11.11158992 9.40844403 14.55916828 8 19 C5.59005601 22.86310424 3.36348215 25.54550595 -1 27 C-5.6594918 27.54138857 -9.10553068 27.43067041 -13.375 25.375 C-17.36967893 21.76076668 -19.1206612 18.35559774 -19.4375 13 C-19.25027669 8.73456459 -17.81006484 6.25375928 -15 3 C-10.06774696 -1.4734388 -6.17955464 -1.71654295 0 0 Z " fill="#F2F2FA" transform="translate(28,9)"/>
<path d="M0 0 C0.99 0.66 1.98 1.32 3 2 C2.46884894 6.51478398 0.63379708 9.34666857 -2 13 C-2.99 12.67 -3.98 12.34 -5 12 C-4.37240135 9.07120629 -3.41377341 6.63904371 -2 4 C-5.79547921 4.96776098 -5.79547921 4.96776098 -9 7 C-9.26293056 11.03160191 -9.29404844 12.55892734 -7 16 C-3.54230809 16.58342353 -3.54230809 16.58342353 0 16 C3.01584021 13.29614326 3.87214625 9.81735114 5 6 C5.66 6 6.32 6 7 6 C7.30567686 15.17030568 7.30567686 15.17030568 5 18 C1.57873083 20.36230491 -1.0301481 21.25836526 -5.125 20.9375 C-9 20 -9 20 -11.5 18.625 C-13.99102035 14.26571439 -13.94393718 9.87100408 -13 5 C-10.00210263 0.0423464 -5.47171598 -0.72267947 0 0 Z " fill="#7971DB" transform="translate(26,12)"/>
<path d="M0 0 C0.66 0.33 1.32 0.66 2 1 C2.2940544 8.53415062 1.2021531 15.38071356 -0.3125 22.75 C-0.52583984 23.85988281 -0.73917969 24.96976563 -0.95898438 26.11328125 C-1.28286133 27.72009766 -1.28286133 27.72009766 -1.61328125 29.359375 C-1.80704346 30.32327148 -2.00080566 31.28716797 -2.20043945 32.28027344 C-3.08082052 35.27491316 -4.13756266 37.4940935 -6 40 C-13.47473472 41.118547 -21.0916531 38.72778361 -28.375 37.125 C-29.65761719 36.85558594 -30.94023437 36.58617187 -32.26171875 36.30859375 C-41.74408272 34.25591728 -41.74408272 34.25591728 -44 32 C-35.37157914 32.4284661 -27.16123348 33.61252726 -18.7265625 35.37890625 C-15.02361127 35.99606479 -11.74206925 36.32963637 -8 36 C-5.70245005 32.55367508 -5.17548755 29.47975625 -4.4921875 25.48828125 C-4.29666794 24.39594429 -4.29666794 24.39594429 -4.09719849 23.28153992 C-3.68316569 20.95964638 -3.27896918 18.63616338 -2.875 16.3125 C-2.59569903 14.73621336 -2.31575863 13.16003987 -2.03515625 11.58398438 C-1.34934925 7.72392919 -0.67235765 3.86241957 0 0 Z " fill="#06060E" transform="translate(45,7)"/>
<path d="M0 0 C0.99 0.66 1.98 1.32 3 2 C2.46884894 6.51478398 0.63379708 9.34666857 -2 13 C-2.99 12.67 -3.98 12.34 -5 12 C-4.37240135 9.07120629 -3.41377341 6.63904371 -2 4 C-2.886875 4.309375 -3.77375 4.61875 -4.6875 4.9375 C-7.46709155 5.8290671 -10.13136375 6.49377007 -13 7 C-10.3462135 0.58668263 -6.77491946 -0.61590177 0 0 Z " fill="#8379DE" transform="translate(26,12)"/>
<path d="M0 0 C9.87956066 0.49059462 19.33360714 2.02701352 29 4 C21.80348024 8.22652748 12.31585972 4.53458633 4.6875 2.81640625 C2 2 2 2 0 0 Z " fill="#0B0A18" transform="translate(1,39)"/>
</svg>
